<mxfile host="app.diagrams.net" modified="2023-11-09T12:08:33.848Z" agent="Mozilla/5.0 (Windows NT 10.0; Win64; x64) AppleWebKit/537.36 (KHTML, like Gecko) Chrome/119.0.0.0 Safari/537.36 Edg/119.0.0.0" etag="GnHC3rFl-PejbWKoIkax" version="22.1.0" type="github">
  <diagram id="C5RBs43oDa-KdzZeNtuy" name="Page-1">
    <mxGraphModel dx="2053" dy="629" grid="1" gridSize="10" guides="1" tooltips="1" connect="1" arrows="1" fold="1" page="1" pageScale="1" pageWidth="827" pageHeight="1169" math="0" shadow="0">
      <root>
        <mxCell id="WIyWlLk6GJQsqaUBKTNV-0" />
        <mxCell id="WIyWlLk6GJQsqaUBKTNV-1" parent="WIyWlLk6GJQsqaUBKTNV-0" />
        <mxCell id="zfiKxL-_NQPMJ0ey8t-O-65" value="Khách hàng" style="rounded=1;whiteSpace=wrap;html=1;" vertex="1" parent="WIyWlLk6GJQsqaUBKTNV-1">
          <mxGeometry x="560" y="440" width="120" height="40" as="geometry" />
        </mxCell>
        <mxCell id="zfiKxL-_NQPMJ0ey8t-O-66" value="Sử dụng dịch vụ" style="rounded=1;whiteSpace=wrap;html=1;" vertex="1" parent="WIyWlLk6GJQsqaUBKTNV-1">
          <mxGeometry x="400" y="360" width="120" height="40" as="geometry" />
        </mxCell>
        <mxCell id="zfiKxL-_NQPMJ0ey8t-O-88" style="edgeStyle=orthogonalEdgeStyle;rounded=0;orthogonalLoop=1;jettySize=auto;html=1;exitX=1;exitY=0;exitDx=0;exitDy=0;" edge="1" parent="WIyWlLk6GJQsqaUBKTNV-1" source="zfiKxL-_NQPMJ0ey8t-O-68">
          <mxGeometry relative="1" as="geometry">
            <mxPoint x="830" y="680" as="targetPoint" />
            <mxPoint x="600" y="560" as="sourcePoint" />
            <Array as="points">
              <mxPoint x="720" y="560" />
              <mxPoint x="720" y="680" />
            </Array>
          </mxGeometry>
        </mxCell>
        <mxCell id="zfiKxL-_NQPMJ0ey8t-O-68" value="Thành viên" style="rounded=1;whiteSpace=wrap;html=1;" vertex="1" parent="WIyWlLk6GJQsqaUBKTNV-1">
          <mxGeometry x="480" y="560" width="120" height="40" as="geometry" />
        </mxCell>
        <mxCell id="zfiKxL-_NQPMJ0ey8t-O-69" value="Không phải thành viên" style="rounded=1;whiteSpace=wrap;html=1;" vertex="1" parent="WIyWlLk6GJQsqaUBKTNV-1">
          <mxGeometry x="760" y="538" width="120" height="40" as="geometry" />
        </mxCell>
        <mxCell id="zfiKxL-_NQPMJ0ey8t-O-70" value="Thẻ tín dụng" style="rounded=1;whiteSpace=wrap;html=1;" vertex="1" parent="WIyWlLk6GJQsqaUBKTNV-1">
          <mxGeometry x="360" y="680" width="120" height="40" as="geometry" />
        </mxCell>
        <mxCell id="zfiKxL-_NQPMJ0ey8t-O-71" value="Địa chỉ" style="rounded=1;whiteSpace=wrap;html=1;" vertex="1" parent="WIyWlLk6GJQsqaUBKTNV-1">
          <mxGeometry x="590" y="680" width="120" height="40" as="geometry" />
        </mxCell>
        <mxCell id="zfiKxL-_NQPMJ0ey8t-O-72" value="guaranteed by" style="endArrow=open;html=1;endSize=12;startArrow=diamondThin;startSize=14;startFill=0;edgeStyle=orthogonalEdgeStyle;rounded=0;exitX=0;exitY=0.5;exitDx=0;exitDy=0;entryX=0.5;entryY=0;entryDx=0;entryDy=0;" edge="1" parent="WIyWlLk6GJQsqaUBKTNV-1" source="zfiKxL-_NQPMJ0ey8t-O-68" target="zfiKxL-_NQPMJ0ey8t-O-70">
          <mxGeometry x="0.3749" relative="1" as="geometry">
            <mxPoint x="490" y="640" as="sourcePoint" />
            <mxPoint x="650" y="640" as="targetPoint" />
            <mxPoint as="offset" />
          </mxGeometry>
        </mxCell>
        <mxCell id="zfiKxL-_NQPMJ0ey8t-O-73" value="1...*" style="edgeLabel;resizable=0;html=1;align=left;verticalAlign=top;" connectable="0" vertex="1" parent="zfiKxL-_NQPMJ0ey8t-O-72">
          <mxGeometry x="-1" relative="1" as="geometry">
            <mxPoint x="-50" y="-30" as="offset" />
          </mxGeometry>
        </mxCell>
        <mxCell id="zfiKxL-_NQPMJ0ey8t-O-74" value="1" style="edgeLabel;resizable=0;html=1;align=right;verticalAlign=top;" connectable="0" vertex="1" parent="zfiKxL-_NQPMJ0ey8t-O-72">
          <mxGeometry x="1" relative="1" as="geometry">
            <mxPoint x="14" y="-30" as="offset" />
          </mxGeometry>
        </mxCell>
        <mxCell id="zfiKxL-_NQPMJ0ey8t-O-85" value="lives at" style="endArrow=open;html=1;endSize=12;startArrow=diamondThin;startSize=14;startFill=0;edgeStyle=orthogonalEdgeStyle;rounded=0;exitX=1;exitY=0.5;exitDx=0;exitDy=0;entryX=0.5;entryY=0;entryDx=0;entryDy=0;" edge="1" parent="WIyWlLk6GJQsqaUBKTNV-1" source="zfiKxL-_NQPMJ0ey8t-O-68" target="zfiKxL-_NQPMJ0ey8t-O-71">
          <mxGeometry x="0.3749" relative="1" as="geometry">
            <mxPoint x="680" y="600" as="sourcePoint" />
            <mxPoint x="620" y="700" as="targetPoint" />
            <mxPoint as="offset" />
            <Array as="points">
              <mxPoint x="650" y="580" />
              <mxPoint x="650" y="680" />
            </Array>
          </mxGeometry>
        </mxCell>
        <mxCell id="zfiKxL-_NQPMJ0ey8t-O-86" value="1...*" style="edgeLabel;resizable=0;html=1;align=left;verticalAlign=top;" connectable="0" vertex="1" parent="zfiKxL-_NQPMJ0ey8t-O-85">
          <mxGeometry x="-1" relative="1" as="geometry">
            <mxPoint x="20" y="5" as="offset" />
          </mxGeometry>
        </mxCell>
        <mxCell id="zfiKxL-_NQPMJ0ey8t-O-87" value="1" style="edgeLabel;resizable=0;html=1;align=right;verticalAlign=top;" connectable="0" vertex="1" parent="zfiKxL-_NQPMJ0ey8t-O-85">
          <mxGeometry x="1" relative="1" as="geometry">
            <mxPoint x="14" y="-30" as="offset" />
          </mxGeometry>
        </mxCell>
        <mxCell id="zfiKxL-_NQPMJ0ey8t-O-89" value="Tài khoản internet" style="rounded=1;whiteSpace=wrap;html=1;" vertex="1" parent="WIyWlLk6GJQsqaUBKTNV-1">
          <mxGeometry x="770" y="660" width="120" height="40" as="geometry" />
        </mxCell>
        <mxCell id="zfiKxL-_NQPMJ0ey8t-O-90" value="Login with" style="text;html=1;align=center;verticalAlign=middle;resizable=0;points=[];autosize=1;strokeColor=none;fillColor=none;" vertex="1" parent="WIyWlLk6GJQsqaUBKTNV-1">
          <mxGeometry x="710" y="620" width="80" height="30" as="geometry" />
        </mxCell>
        <mxCell id="zfiKxL-_NQPMJ0ey8t-O-92" value="" style="endArrow=block;endSize=16;endFill=0;html=1;rounded=0;entryX=0.5;entryY=1;entryDx=0;entryDy=0;" edge="1" parent="WIyWlLk6GJQsqaUBKTNV-1" target="zfiKxL-_NQPMJ0ey8t-O-65">
          <mxGeometry width="160" relative="1" as="geometry">
            <mxPoint x="620" y="560" as="sourcePoint" />
            <mxPoint x="670" y="530" as="targetPoint" />
            <Array as="points">
              <mxPoint x="620" y="520" />
            </Array>
          </mxGeometry>
        </mxCell>
        <mxCell id="zfiKxL-_NQPMJ0ey8t-O-97" value="" style="endArrow=none;html=1;rounded=0;" edge="1" parent="WIyWlLk6GJQsqaUBKTNV-1">
          <mxGeometry relative="1" as="geometry">
            <mxPoint x="620" y="559.37" as="sourcePoint" />
            <mxPoint x="760" y="559.87" as="targetPoint" />
          </mxGeometry>
        </mxCell>
        <mxCell id="zfiKxL-_NQPMJ0ey8t-O-101" value="" style="endArrow=none;html=1;edgeStyle=orthogonalEdgeStyle;rounded=0;entryX=0.5;entryY=0;entryDx=0;entryDy=0;" edge="1" parent="WIyWlLk6GJQsqaUBKTNV-1">
          <mxGeometry relative="1" as="geometry">
            <mxPoint x="520" y="379.5" as="sourcePoint" />
            <mxPoint x="619.9999999999998" y="440" as="targetPoint" />
          </mxGeometry>
        </mxCell>
        <mxCell id="zfiKxL-_NQPMJ0ey8t-O-102" value="&lt;font style=&quot;font-size: 25px;&quot;&gt;*&lt;/font&gt;" style="edgeLabel;resizable=0;html=1;align=left;verticalAlign=bottom;" connectable="0" vertex="1" parent="zfiKxL-_NQPMJ0ey8t-O-101">
          <mxGeometry x="-1" relative="1" as="geometry">
            <mxPoint y="11" as="offset" />
          </mxGeometry>
        </mxCell>
        <mxCell id="zfiKxL-_NQPMJ0ey8t-O-103" value="Taken out by" style="edgeLabel;resizable=0;html=1;align=right;verticalAlign=bottom;" connectable="0" vertex="1" parent="zfiKxL-_NQPMJ0ey8t-O-101">
          <mxGeometry x="1" relative="1" as="geometry">
            <mxPoint x="40" y="-30" as="offset" />
          </mxGeometry>
        </mxCell>
        <mxCell id="zfiKxL-_NQPMJ0ey8t-O-104" value="Thêm khách hàng" style="rounded=1;whiteSpace=wrap;html=1;" vertex="1" parent="WIyWlLk6GJQsqaUBKTNV-1">
          <mxGeometry x="200" y="360" width="120" height="40" as="geometry" />
        </mxCell>
        <mxCell id="zfiKxL-_NQPMJ0ey8t-O-105" value="" style="endArrow=none;html=1;edgeStyle=orthogonalEdgeStyle;rounded=0;exitX=1;exitY=0.5;exitDx=0;exitDy=0;" edge="1" parent="WIyWlLk6GJQsqaUBKTNV-1" source="zfiKxL-_NQPMJ0ey8t-O-104">
          <mxGeometry relative="1" as="geometry">
            <mxPoint x="360" y="379.58" as="sourcePoint" />
            <mxPoint x="400" y="380" as="targetPoint" />
          </mxGeometry>
        </mxCell>
        <mxCell id="zfiKxL-_NQPMJ0ey8t-O-106" value="1...*" style="edgeLabel;resizable=0;html=1;align=left;verticalAlign=bottom;" connectable="0" vertex="1" parent="zfiKxL-_NQPMJ0ey8t-O-105">
          <mxGeometry x="-1" relative="1" as="geometry" />
        </mxCell>
        <mxCell id="zfiKxL-_NQPMJ0ey8t-O-107" value="0...1" style="edgeLabel;resizable=0;html=1;align=right;verticalAlign=bottom;" connectable="0" vertex="1" parent="zfiKxL-_NQPMJ0ey8t-O-105">
          <mxGeometry x="1" relative="1" as="geometry">
            <mxPoint x="-5" as="offset" />
          </mxGeometry>
        </mxCell>
        <mxCell id="zfiKxL-_NQPMJ0ey8t-O-108" value="False" style="text;html=1;align=center;verticalAlign=middle;resizable=0;points=[];autosize=1;strokeColor=none;fillColor=none;" vertex="1" parent="WIyWlLk6GJQsqaUBKTNV-1">
          <mxGeometry x="335" y="340" width="50" height="30" as="geometry" />
        </mxCell>
        <mxCell id="zfiKxL-_NQPMJ0ey8t-O-109" value="Hiển thị thành viên" style="rounded=1;whiteSpace=wrap;html=1;" vertex="1" parent="WIyWlLk6GJQsqaUBKTNV-1">
          <mxGeometry x="200" y="520" width="120" height="40" as="geometry" />
        </mxCell>
        <mxCell id="zfiKxL-_NQPMJ0ey8t-O-110" value="" style="endArrow=none;html=1;edgeStyle=orthogonalEdgeStyle;rounded=0;entryX=0.5;entryY=1;entryDx=0;entryDy=0;" edge="1" parent="WIyWlLk6GJQsqaUBKTNV-1" target="zfiKxL-_NQPMJ0ey8t-O-66">
          <mxGeometry relative="1" as="geometry">
            <mxPoint x="320" y="539" as="sourcePoint" />
            <mxPoint x="500" y="479" as="targetPoint" />
            <Array as="points">
              <mxPoint x="320" y="540" />
              <mxPoint x="500" y="540" />
            </Array>
          </mxGeometry>
        </mxCell>
        <mxCell id="zfiKxL-_NQPMJ0ey8t-O-111" value="*" style="edgeLabel;resizable=0;html=1;align=left;verticalAlign=bottom;" connectable="0" vertex="1" parent="zfiKxL-_NQPMJ0ey8t-O-110">
          <mxGeometry x="-1" relative="1" as="geometry" />
        </mxCell>
        <mxCell id="zfiKxL-_NQPMJ0ey8t-O-112" value="*" style="edgeLabel;resizable=0;html=1;align=right;verticalAlign=bottom;" connectable="0" vertex="1" parent="zfiKxL-_NQPMJ0ey8t-O-110">
          <mxGeometry x="1" relative="1" as="geometry">
            <mxPoint y="20" as="offset" />
          </mxGeometry>
        </mxCell>
        <mxCell id="zfiKxL-_NQPMJ0ey8t-O-128" style="edgeStyle=orthogonalEdgeStyle;rounded=0;orthogonalLoop=1;jettySize=auto;html=1;exitX=0.5;exitY=1;exitDx=0;exitDy=0;entryX=0.5;entryY=0;entryDx=0;entryDy=0;" edge="1" parent="WIyWlLk6GJQsqaUBKTNV-1" source="zfiKxL-_NQPMJ0ey8t-O-113" target="zfiKxL-_NQPMJ0ey8t-O-114">
          <mxGeometry relative="1" as="geometry" />
        </mxCell>
        <mxCell id="zfiKxL-_NQPMJ0ey8t-O-113" value="Cung cấp thông tin" style="rounded=1;whiteSpace=wrap;html=1;" vertex="1" parent="WIyWlLk6GJQsqaUBKTNV-1">
          <mxGeometry x="40" y="280" width="120" height="40" as="geometry" />
        </mxCell>
        <mxCell id="zfiKxL-_NQPMJ0ey8t-O-129" style="edgeStyle=orthogonalEdgeStyle;rounded=0;orthogonalLoop=1;jettySize=auto;html=1;exitX=0.5;exitY=1;exitDx=0;exitDy=0;entryX=0.5;entryY=0;entryDx=0;entryDy=0;" edge="1" parent="WIyWlLk6GJQsqaUBKTNV-1" source="zfiKxL-_NQPMJ0ey8t-O-114" target="zfiKxL-_NQPMJ0ey8t-O-115">
          <mxGeometry relative="1" as="geometry" />
        </mxCell>
        <mxCell id="zfiKxL-_NQPMJ0ey8t-O-114" value="Lập thẻ thành viên" style="rounded=1;whiteSpace=wrap;html=1;" vertex="1" parent="WIyWlLk6GJQsqaUBKTNV-1">
          <mxGeometry x="40" y="360" width="120" height="40" as="geometry" />
        </mxCell>
        <mxCell id="zfiKxL-_NQPMJ0ey8t-O-130" style="edgeStyle=orthogonalEdgeStyle;rounded=0;orthogonalLoop=1;jettySize=auto;html=1;exitX=0.5;exitY=1;exitDx=0;exitDy=0;entryX=0;entryY=0.75;entryDx=0;entryDy=0;" edge="1" parent="WIyWlLk6GJQsqaUBKTNV-1">
          <mxGeometry relative="1" as="geometry">
            <mxPoint y="340" as="sourcePoint" />
            <mxPoint x="379.99999999999955" y="450.0000000000002" as="targetPoint" />
          </mxGeometry>
        </mxCell>
        <mxCell id="zfiKxL-_NQPMJ0ey8t-O-115" value="Lữu trữ thông tin khách hàng" style="rounded=1;whiteSpace=wrap;html=1;" vertex="1" parent="WIyWlLk6GJQsqaUBKTNV-1">
          <mxGeometry x="40" y="440" width="120" height="40" as="geometry" />
        </mxCell>
        <mxCell id="zfiKxL-_NQPMJ0ey8t-O-116" value="" style="endArrow=none;html=1;edgeStyle=orthogonalEdgeStyle;rounded=0;entryX=0;entryY=0.5;entryDx=0;entryDy=0;" edge="1" parent="WIyWlLk6GJQsqaUBKTNV-1" target="zfiKxL-_NQPMJ0ey8t-O-104">
          <mxGeometry relative="1" as="geometry">
            <mxPoint x="160" y="299.58000000000004" as="sourcePoint" />
            <mxPoint x="320" y="299.58000000000004" as="targetPoint" />
          </mxGeometry>
        </mxCell>
        <mxCell id="zfiKxL-_NQPMJ0ey8t-O-117" value="*" style="edgeLabel;resizable=0;html=1;align=left;verticalAlign=bottom;" connectable="0" vertex="1" parent="zfiKxL-_NQPMJ0ey8t-O-116">
          <mxGeometry x="-1" relative="1" as="geometry" />
        </mxCell>
        <mxCell id="zfiKxL-_NQPMJ0ey8t-O-118" value="*" style="edgeLabel;resizable=0;html=1;align=right;verticalAlign=bottom;" connectable="0" vertex="1" parent="zfiKxL-_NQPMJ0ey8t-O-116">
          <mxGeometry x="1" relative="1" as="geometry" />
        </mxCell>
        <mxCell id="zfiKxL-_NQPMJ0ey8t-O-119" value="" style="endArrow=none;html=1;edgeStyle=orthogonalEdgeStyle;rounded=0;entryX=0;entryY=0.5;entryDx=0;entryDy=0;" edge="1" parent="WIyWlLk6GJQsqaUBKTNV-1" target="zfiKxL-_NQPMJ0ey8t-O-104">
          <mxGeometry relative="1" as="geometry">
            <mxPoint x="160" y="379.58" as="sourcePoint" />
            <mxPoint x="320" y="379.58" as="targetPoint" />
          </mxGeometry>
        </mxCell>
        <mxCell id="zfiKxL-_NQPMJ0ey8t-O-120" value="*" style="edgeLabel;resizable=0;html=1;align=left;verticalAlign=bottom;" connectable="0" vertex="1" parent="zfiKxL-_NQPMJ0ey8t-O-119">
          <mxGeometry x="-1" relative="1" as="geometry" />
        </mxCell>
        <mxCell id="zfiKxL-_NQPMJ0ey8t-O-121" value="*" style="edgeLabel;resizable=0;html=1;align=right;verticalAlign=bottom;" connectable="0" vertex="1" parent="zfiKxL-_NQPMJ0ey8t-O-119">
          <mxGeometry x="1" relative="1" as="geometry" />
        </mxCell>
        <mxCell id="zfiKxL-_NQPMJ0ey8t-O-122" value="" style="endArrow=none;html=1;edgeStyle=orthogonalEdgeStyle;rounded=0;entryX=0;entryY=0.5;entryDx=0;entryDy=0;" edge="1" parent="WIyWlLk6GJQsqaUBKTNV-1" target="zfiKxL-_NQPMJ0ey8t-O-104">
          <mxGeometry relative="1" as="geometry">
            <mxPoint x="160" y="459.58" as="sourcePoint" />
            <mxPoint x="320" y="459.58" as="targetPoint" />
          </mxGeometry>
        </mxCell>
        <mxCell id="zfiKxL-_NQPMJ0ey8t-O-123" value="*" style="edgeLabel;resizable=0;html=1;align=left;verticalAlign=bottom;" connectable="0" vertex="1" parent="zfiKxL-_NQPMJ0ey8t-O-122">
          <mxGeometry x="-1" relative="1" as="geometry" />
        </mxCell>
        <mxCell id="zfiKxL-_NQPMJ0ey8t-O-124" value="*" style="edgeLabel;resizable=0;html=1;align=right;verticalAlign=bottom;" connectable="0" vertex="1" parent="zfiKxL-_NQPMJ0ey8t-O-122">
          <mxGeometry x="1" relative="1" as="geometry" />
        </mxCell>
        <mxCell id="zfiKxL-_NQPMJ0ey8t-O-125" value="True" style="text;html=1;align=center;verticalAlign=middle;resizable=0;points=[];autosize=1;strokeColor=none;fillColor=none;" vertex="1" parent="WIyWlLk6GJQsqaUBKTNV-1">
          <mxGeometry x="385" y="508" width="50" height="30" as="geometry" />
        </mxCell>
        <mxCell id="zfiKxL-_NQPMJ0ey8t-O-126" value="Dịch vụ của doanh nghiệp" style="rounded=1;whiteSpace=wrap;html=1;" vertex="1" parent="WIyWlLk6GJQsqaUBKTNV-1">
          <mxGeometry x="-160" y="400" width="160" height="200" as="geometry" />
        </mxCell>
        <mxCell id="zfiKxL-_NQPMJ0ey8t-O-131" style="edgeStyle=orthogonalEdgeStyle;rounded=0;orthogonalLoop=1;jettySize=auto;html=1;exitX=0;exitY=0.5;exitDx=0;exitDy=0;entryX=1.022;entryY=0.698;entryDx=0;entryDy=0;entryPerimeter=0;" edge="1" parent="WIyWlLk6GJQsqaUBKTNV-1" source="zfiKxL-_NQPMJ0ey8t-O-109" target="zfiKxL-_NQPMJ0ey8t-O-126">
          <mxGeometry relative="1" as="geometry" />
        </mxCell>
        <mxCell id="zfiKxL-_NQPMJ0ey8t-O-132" value="Các lợi ích của thành viên" style="rounded=1;whiteSpace=wrap;html=1;" vertex="1" parent="WIyWlLk6GJQsqaUBKTNV-1">
          <mxGeometry x="40" y="640" width="120" height="40" as="geometry" />
        </mxCell>
        <mxCell id="zfiKxL-_NQPMJ0ey8t-O-133" value="" style="endArrow=none;html=1;edgeStyle=orthogonalEdgeStyle;rounded=0;" edge="1" parent="WIyWlLk6GJQsqaUBKTNV-1" source="zfiKxL-_NQPMJ0ey8t-O-126">
          <mxGeometry relative="1" as="geometry">
            <mxPoint x="-120" y="660" as="sourcePoint" />
            <mxPoint x="40" y="660" as="targetPoint" />
          </mxGeometry>
        </mxCell>
        <mxCell id="zfiKxL-_NQPMJ0ey8t-O-134" value="1" style="edgeLabel;resizable=0;html=1;align=left;verticalAlign=bottom;" connectable="0" vertex="1" parent="zfiKxL-_NQPMJ0ey8t-O-133">
          <mxGeometry x="-1" relative="1" as="geometry" />
        </mxCell>
        <mxCell id="zfiKxL-_NQPMJ0ey8t-O-135" value="*" style="edgeLabel;resizable=0;html=1;align=right;verticalAlign=bottom;" connectable="0" vertex="1" parent="zfiKxL-_NQPMJ0ey8t-O-133">
          <mxGeometry x="1" relative="1" as="geometry" />
        </mxCell>
        <mxCell id="zfiKxL-_NQPMJ0ey8t-O-136" value="" style="endArrow=diamondThin;endFill=1;endSize=24;html=1;rounded=0;" edge="1" parent="WIyWlLk6GJQsqaUBKTNV-1">
          <mxGeometry width="160" relative="1" as="geometry">
            <mxPoint x="259.52" y="690" as="sourcePoint" />
            <mxPoint x="259.52" y="560" as="targetPoint" />
          </mxGeometry>
        </mxCell>
        <mxCell id="zfiKxL-_NQPMJ0ey8t-O-141" style="edgeStyle=orthogonalEdgeStyle;rounded=0;orthogonalLoop=1;jettySize=auto;html=1;exitX=0;exitY=0.5;exitDx=0;exitDy=0;entryX=1;entryY=0.5;entryDx=0;entryDy=0;" edge="1" parent="WIyWlLk6GJQsqaUBKTNV-1" source="zfiKxL-_NQPMJ0ey8t-O-137" target="zfiKxL-_NQPMJ0ey8t-O-139">
          <mxGeometry relative="1" as="geometry" />
        </mxCell>
        <mxCell id="zfiKxL-_NQPMJ0ey8t-O-137" value="Cập nhật thông tin" style="rounded=1;whiteSpace=wrap;html=1;" vertex="1" parent="WIyWlLk6GJQsqaUBKTNV-1">
          <mxGeometry x="200" y="690" width="120" height="40" as="geometry" />
        </mxCell>
        <mxCell id="zfiKxL-_NQPMJ0ey8t-O-138" value="Chi tiết" style="text;html=1;align=center;verticalAlign=middle;resizable=0;points=[];autosize=1;strokeColor=none;fillColor=none;" vertex="1" parent="WIyWlLk6GJQsqaUBKTNV-1">
          <mxGeometry x="250" y="630" width="60" height="30" as="geometry" />
        </mxCell>
        <mxCell id="zfiKxL-_NQPMJ0ey8t-O-139" value="Hiển thị thông tin thành viên" style="rounded=1;whiteSpace=wrap;html=1;" vertex="1" parent="WIyWlLk6GJQsqaUBKTNV-1">
          <mxGeometry x="40" y="690" width="120" height="40" as="geometry" />
        </mxCell>
        <mxCell id="zfiKxL-_NQPMJ0ey8t-O-155" style="edgeStyle=orthogonalEdgeStyle;rounded=0;orthogonalLoop=1;jettySize=auto;html=1;exitX=0.5;exitY=1;exitDx=0;exitDy=0;entryX=0.5;entryY=0;entryDx=0;entryDy=0;" edge="1" parent="WIyWlLk6GJQsqaUBKTNV-1" source="zfiKxL-_NQPMJ0ey8t-O-142" target="zfiKxL-_NQPMJ0ey8t-O-153">
          <mxGeometry relative="1" as="geometry" />
        </mxCell>
        <mxCell id="zfiKxL-_NQPMJ0ey8t-O-142" value="Thêm" style="ellipse;whiteSpace=wrap;html=1;" vertex="1" parent="WIyWlLk6GJQsqaUBKTNV-1">
          <mxGeometry x="-40" y="760" width="80" height="40" as="geometry" />
        </mxCell>
        <mxCell id="zfiKxL-_NQPMJ0ey8t-O-156" style="edgeStyle=orthogonalEdgeStyle;rounded=0;orthogonalLoop=1;jettySize=auto;html=1;exitX=0.5;exitY=1;exitDx=0;exitDy=0;" edge="1" parent="WIyWlLk6GJQsqaUBKTNV-1" source="zfiKxL-_NQPMJ0ey8t-O-143">
          <mxGeometry relative="1" as="geometry">
            <mxPoint x="100" y="880" as="targetPoint" />
          </mxGeometry>
        </mxCell>
        <mxCell id="zfiKxL-_NQPMJ0ey8t-O-143" value="Xoá" style="ellipse;whiteSpace=wrap;html=1;" vertex="1" parent="WIyWlLk6GJQsqaUBKTNV-1">
          <mxGeometry x="60" y="760" width="80" height="40" as="geometry" />
        </mxCell>
        <mxCell id="zfiKxL-_NQPMJ0ey8t-O-157" style="edgeStyle=orthogonalEdgeStyle;rounded=0;orthogonalLoop=1;jettySize=auto;html=1;exitX=0.5;exitY=1;exitDx=0;exitDy=0;" edge="1" parent="WIyWlLk6GJQsqaUBKTNV-1" source="zfiKxL-_NQPMJ0ey8t-O-144">
          <mxGeometry relative="1" as="geometry">
            <mxPoint x="100" y="880" as="targetPoint" />
          </mxGeometry>
        </mxCell>
        <mxCell id="zfiKxL-_NQPMJ0ey8t-O-144" value="Sửa" style="ellipse;whiteSpace=wrap;html=1;" vertex="1" parent="WIyWlLk6GJQsqaUBKTNV-1">
          <mxGeometry x="160" y="760" width="80" height="40" as="geometry" />
        </mxCell>
        <mxCell id="zfiKxL-_NQPMJ0ey8t-O-146" value="" style="endArrow=none;html=1;edgeStyle=orthogonalEdgeStyle;rounded=0;exitX=0.5;exitY=1;exitDx=0;exitDy=0;entryX=0.759;entryY=0.061;entryDx=0;entryDy=0;entryPerimeter=0;" edge="1" parent="WIyWlLk6GJQsqaUBKTNV-1" source="zfiKxL-_NQPMJ0ey8t-O-139" target="zfiKxL-_NQPMJ0ey8t-O-142">
          <mxGeometry relative="1" as="geometry">
            <mxPoint x="120" y="800" as="sourcePoint" />
            <mxPoint x="280" y="800" as="targetPoint" />
            <Array as="points">
              <mxPoint x="100" y="750" />
              <mxPoint x="21" y="750" />
            </Array>
          </mxGeometry>
        </mxCell>
        <mxCell id="zfiKxL-_NQPMJ0ey8t-O-149" value="" style="endArrow=none;html=1;edgeStyle=orthogonalEdgeStyle;rounded=0;entryX=0.5;entryY=0;entryDx=0;entryDy=0;" edge="1" parent="WIyWlLk6GJQsqaUBKTNV-1" target="zfiKxL-_NQPMJ0ey8t-O-143">
          <mxGeometry relative="1" as="geometry">
            <mxPoint x="100" y="740" as="sourcePoint" />
            <mxPoint x="280" y="800" as="targetPoint" />
            <Array as="points">
              <mxPoint x="100" y="755" />
              <mxPoint x="100" y="755" />
            </Array>
          </mxGeometry>
        </mxCell>
        <mxCell id="zfiKxL-_NQPMJ0ey8t-O-152" value="" style="endArrow=none;html=1;edgeStyle=orthogonalEdgeStyle;rounded=0;entryX=0.5;entryY=0;entryDx=0;entryDy=0;exitX=0.5;exitY=1;exitDx=0;exitDy=0;" edge="1" parent="WIyWlLk6GJQsqaUBKTNV-1" source="zfiKxL-_NQPMJ0ey8t-O-139">
          <mxGeometry relative="1" as="geometry">
            <mxPoint x="199.73000000000002" y="730" as="sourcePoint" />
            <mxPoint x="199.73000000000002" y="760" as="targetPoint" />
            <Array as="points">
              <mxPoint x="100" y="750" />
              <mxPoint x="200" y="750" />
            </Array>
          </mxGeometry>
        </mxCell>
        <mxCell id="zfiKxL-_NQPMJ0ey8t-O-153" value="Cập nhật thông tin thành công" style="rounded=1;whiteSpace=wrap;html=1;" vertex="1" parent="WIyWlLk6GJQsqaUBKTNV-1">
          <mxGeometry x="40" y="880" width="120" height="40" as="geometry" />
        </mxCell>
        <mxCell id="zfiKxL-_NQPMJ0ey8t-O-154" value="&lt;font style=&quot;font-size: 9px;&quot;&gt;Chi tiết&lt;/font&gt;" style="text;html=1;align=center;verticalAlign=middle;resizable=0;points=[];autosize=1;strokeColor=none;fillColor=none;" vertex="1" parent="WIyWlLk6GJQsqaUBKTNV-1">
          <mxGeometry x="100" y="720" width="50" height="30" as="geometry" />
        </mxCell>
        <mxCell id="zfiKxL-_NQPMJ0ey8t-O-159" value="" style="endArrow=none;html=1;edgeStyle=orthogonalEdgeStyle;rounded=0;entryX=0.5;entryY=1;entryDx=0;entryDy=0;" edge="1" parent="WIyWlLk6GJQsqaUBKTNV-1" target="zfiKxL-_NQPMJ0ey8t-O-68">
          <mxGeometry relative="1" as="geometry">
            <mxPoint x="160" y="899.58" as="sourcePoint" />
            <mxPoint x="320" y="899.58" as="targetPoint" />
          </mxGeometry>
        </mxCell>
        <mxCell id="zfiKxL-_NQPMJ0ey8t-O-160" value="1" style="edgeLabel;resizable=0;html=1;align=left;verticalAlign=bottom;" connectable="0" vertex="1" parent="zfiKxL-_NQPMJ0ey8t-O-159">
          <mxGeometry x="-1" relative="1" as="geometry" />
        </mxCell>
        <mxCell id="zfiKxL-_NQPMJ0ey8t-O-161" value="*" style="edgeLabel;resizable=0;html=1;align=right;verticalAlign=bottom;" connectable="0" vertex="1" parent="zfiKxL-_NQPMJ0ey8t-O-159">
          <mxGeometry x="1" relative="1" as="geometry">
            <mxPoint y="20" as="offset" />
          </mxGeometry>
        </mxCell>
        <mxCell id="zfiKxL-_NQPMJ0ey8t-O-163" value="" style="endArrow=none;html=1;edgeStyle=orthogonalEdgeStyle;rounded=0;entryX=0.5;entryY=0;entryDx=0;entryDy=0;" edge="1" parent="WIyWlLk6GJQsqaUBKTNV-1" target="zfiKxL-_NQPMJ0ey8t-O-109">
          <mxGeometry relative="1" as="geometry">
            <mxPoint x="160" y="460" as="sourcePoint" />
            <mxPoint x="320" y="460" as="targetPoint" />
          </mxGeometry>
        </mxCell>
        <mxCell id="zfiKxL-_NQPMJ0ey8t-O-164" value="1" style="edgeLabel;resizable=0;html=1;align=left;verticalAlign=bottom;" connectable="0" vertex="1" parent="zfiKxL-_NQPMJ0ey8t-O-163">
          <mxGeometry x="-1" relative="1" as="geometry" />
        </mxCell>
        <mxCell id="zfiKxL-_NQPMJ0ey8t-O-165" value="1" style="edgeLabel;resizable=0;html=1;align=right;verticalAlign=bottom;" connectable="0" vertex="1" parent="zfiKxL-_NQPMJ0ey8t-O-163">
          <mxGeometry x="1" relative="1" as="geometry" />
        </mxCell>
      </root>
    </mxGraphModel>
  </diagram>
</mxfile>
